# File produced by Open Asset Import Library (http://www.assimp.sf.net)
# (assimp v3.1.187496374)

mtllib cmn_obj_thornpanel_HD.obj.mtl

# 32 vertex positions
v  0.946305 0.0925567 -0.853656
v  0.844023 0.140861 -0.84735
v  1.05104 -0.153177 -0.887373
v  -0.94635 0.0925567 -0.853656
v  -0.989636 -0.153177 -0.992762
v  -0.94635 0.0925567 0.854234
v  -1.05104 -0.153177 0.887961
v  0.850837 0.0925567 -0.948028
v  0.989586 -0.153177 -0.992762
v  -0.850886 0.0925567 -0.948028
v  -0.883704 -0.153177 -1.05105
v  0.850837 0.0925567 0.948552
v  0.883654 -0.153177 1.05103
v  0.912572 0.0925567 -0.915075
v  -0.845462 0.140861 -0.84735
v  -0.912621 0.0925567 -0.915075
v  0.8454 0.140861 0.847928
v  0.946305 0.0925567 0.854234
v  0.912572 0.0925567 0.915653
v  1.05104 -0.153177 0.887961
v  0.989586 -0.153177 0.993351
v  -0.845462 0.140861 0.847928
v  -0.912621 0.0925567 0.915653
v  -1.05104 -0.153177 -0.887373
v  -0.989636 -0.153177 0.993351
v  0.796148 0.122237 -0.802443
v  -0.796335 0.122237 -0.802443
v  0.796148 0.122237 0.806546
v  -0.850886 0.0925567 0.948552
v  -0.796335 0.122237 0.806546
v  0.883654 -0.153177 -1.05105
v  -0.883704 -0.153177 1.05103

# 45 UV coordinates
vt 0.950101 0.997235 0
vt 0.957308 0.962463 0
vt 0.944296 0.529226 0
vt 0.996264 0.533951 0
vt 0.943323 0.919721 0
vt 0.994234 0.937698 0
vt 0.943325 0.526608 0
vt 0.994237 0.531833 0
vt 0.944243 0.528807 0
vt 0.995155 0.507731 0
vt 0.944241 0.918652 0
vt 0.995153 0.913485 0
vt 0.944466 0.930276 0
vt 0.995378 0.926354 0
vt 0.987851 0.987883 0
vt 0.368389 0.962449 0
vt 0.374354 0.997221 0
vt 0.339073 0.986977 0
vt 0.339096 0.986977 0
vt 0.996264 0.509038 0
vt 0.944296 0.509038 0
vt 0.996262 0.917123 0
vt 0.944294 0.919408 0
vt 0.996262 0.937996 0
vt 0.944294 0.929809 0
vt 0.943323 0.937698 0
vt 0.994235 0.913085 0
vt 0.994237 0.506418 0
vt 0.943325 0.506417 0
vt 0.936035 0.945962 0
vt 0.390611 0.945949 0
vt 0.944243 0.507731 0
vt 0.995155 0.533943 0
vt 0.995153 0.93763 0
vt 0.944241 0.93763 0
vt 0.995378 0.937471 0
vt 0.944466 0.937471 0
vt 0.99538 0.533499 0
vt 0.944468 0.529113 0
vt 0.99538 0.507405 0
vt 0.944468 0.507405 0
vt 0.00489336 0.494007 0
vt 0.492909 0.004583 0
vt 0.492909 0.494007 0
vt 0.00489336 0.004583 0

# 37 vertex normals
vn 0.720188 0.670085 -0.179763
vn 0.25068 0.933906 -0.25491
vn 0.880527 0.408312 -0.240735
vn -0.721704 0.668387 -0.180006
vn -0.637839 0.41024 -0.651817
vn -0.721702 0.66839 0.180002
vn -0.880624 0.408178 0.240608
vn 0.175313 0.667183 -0.72397
vn 0.637732 0.410267 -0.651904
vn -0.175057 0.666824 -0.724362
vn -0.230777 0.402242 -0.88597
vn 0.174595 0.666305 0.724951
vn 0.229162 0.400558 0.887152
vn 0.527393 0.661348 -0.533362
vn -0.254387 0.932869 -0.255033
vn -0.528019 0.660035 -0.534368
vn 0.254269 0.932886 0.255089
vn 0.721637 0.66845 0.180038
vn 0.527827 0.660027 0.534569
vn 0.880522 0.40832 0.240739
vn 0.636664 0.409938 0.653154
vn -0.254355 0.932849 0.255138
vn -0.527849 0.660013 0.534564
vn -0.880629 0.40817 -0.240604
vn -0.63677 0.409912 0.653066
vn 0.192905 0.962972 0.188341
vn -0.185329 0.961848 0.201252
vn -0.194643 0.962006 0.191465
vn 0.180307 0.962647 0.201988
vn -0.201606 0.960364 -0.192498
vn -0.177373 0.959112 -0.220552
vn -0.174593 0.666302 0.724954
vn 0.201708 0.960296 -0.192731
vn 0.177874 0.95904 -0.220461
vn 0.230777 0.402241 -0.885971
vn -0.229162 0.400559 0.887151
vn 0 1 0

# Mesh 'cmn_obj_thornpanel_HD_cmn_obj_thornpanel_HD-geometry' with 7 faces
g cmn_obj_thornpanel_HD_cmn_obj_thornpanel_HD-geometry
usemtl cmn_obj_thornpanel_HDID
l  1/1 2/2
l  1/3 3/4
l  4/5 5/6
l  6/7 7/8
l  8/9 9/10
l  10/11 11/12
l  12/13 13/14

# Mesh 'cmn_obj_thornpanel_HD_cmn_obj_thornpanel_HD-geometry' with 50 faces
g cmn_obj_thornpanel_HD_cmn_obj_thornpanel_HD-geometry
usemtl cmn_obj_thornpanel_HDID
f  8/1/8 2/2/2 14/15/14
f  2/2/2 8/1/8 15/16/15
f  10/17/10 15/16/15 8/1/8
f  15/16/15 10/17/10 16/18/16
f  2/2/2 1/1/1 14/15/14
f  17/16/17 1/1/1 2/2/2
f  1/1/1 17/16/17 18/17/18
f  19/19/19 18/17/18 17/16/17
f  1/3/1 9/20/9 14/21/14
f  9/20/9 1/3/1 3/4/3
f  3/4/3 1/3/1 20/22/20
f  18/23/18 20/22/20 1/3/1
f  18/23/18 21/24/21 20/22/20
f  21/24/21 18/23/18 19/25/19
f  4/17/4 15/16/15 16/18/16
f  15/16/15 4/17/4 22/2/22
f  6/1/6 22/2/22 4/17/4
f  22/2/22 6/1/6 23/15/23
f  5/6/5 4/5/4 16/26/16
f  24/27/24 4/5/4 5/6/5
f  4/5/4 24/27/24 6/7/6
f  7/8/7 6/7/6 24/27/24
f  25/28/25 6/7/6 7/8/7
f  6/7/6 25/28/25 23/29/23
f  15/16/26 26/30/27 2/2/28
f  26/30/27 15/16/26 27/31/29
f  17/16/30 26/30/27 28/31/31
f  26/30/27 17/16/30 2/2/28
f  17/16/17 12/17/12 19/19/19
f  12/17/12 17/16/17 29/1/32
f  22/2/22 29/1/32 17/16/17
f  29/1/32 22/2/22 23/15/23
f  27/31/29 22/2/33 30/30/34
f  22/2/33 27/31/29 15/16/26
f  30/30/34 17/16/30 28/31/31
f  17/16/30 30/30/34 22/2/33
f  9/10/9 8/9/8 14/32/14
f  31/33/35 8/9/8 9/10/9
f  8/9/8 31/33/35 10/11/10
f  11/12/11 10/11/10 31/33/35
f  5/34/5 10/11/10 11/12/11
f  10/11/10 5/34/5 16/35/16
f  12/13/12 21/36/21 19/37/19
f  21/36/21 12/13/12 13/14/13
f  13/14/13 12/13/12 32/38/36
f  29/39/32 32/38/36 12/13/12
f  32/38/36 29/39/32 25/40/25
f  23/41/23 25/40/25 29/39/32
f  27/42/37 28/43/37 26/44/37
f  28/43/37 27/42/37 30/45/37

